<?xml version="1.0" encoding="UTF-8" standalone="no"?>
<svg
   xmlns:dc="http://purl.org/dc/elements/1.1/"
   xmlns:cc="http://creativecommons.org/ns#"
   xmlns:rdf="http://www.w3.org/1999/02/22-rdf-syntax-ns#"
   xmlns:svg="http://www.w3.org/2000/svg"
   xmlns="http://www.w3.org/2000/svg"
   xmlns:sodipodi="http://sodipodi.sourceforge.net/DTD/sodipodi-0.dtd"
   xmlns:inkscape="http://www.inkscape.org/namespaces/inkscape"
   width="24"
   height="24"
   viewBox="0 0 24 24"
   fill="none"
   version="1.1"
   id="svg10"
   sodipodi:docname="categories.svg">
  <metadata
     id="metadata16">
    <rdf:RDF>
      <cc:Work
         rdf:about="">
        <dc:format>image/svg+xml</dc:format>
        <dc:type
           rdf:resource="http://purl.org/dc/dcmitype/StillImage" />
      </cc:Work>
    </rdf:RDF>
  </metadata>
  <defs
     id="defs14" />
  <sodipodi:namedview
     pagecolor="#ffffff"
     bordercolor="#666666"
     borderopacity="1"
     objecttolerance="10"
     gridtolerance="10"
     guidetolerance="10"
     inkscape:pageopacity="0"
     inkscape:pageshadow="2"
     inkscape:window-width="640"
     inkscape:window-height="480"
     id="namedview12" />
  <path
     fill-rule="evenodd"
     clip-rule="evenodd"
     d="M6.5 10V10C4.567 10 3 8.433 3 6.5V6.5C3 4.567 4.567 3 6.5 3V3C8.433 3 10 4.567 10 6.5V6.5C10 8.433 8.433 10 6.5 10Z"
     stroke="#667085"
     stroke-width="1.5"
     stroke-linecap="round"
     stroke-linejoin="round"
     id="path2" />
  <path
     fill-rule="evenodd"
     clip-rule="evenodd"
     d="M17.5 10V10C15.567 10 14 8.433 14 6.5V6.5C14 4.567 15.567 3 17.5 3V3C19.433 3 21 4.567 21 6.5V6.5C21 8.433 19.433 10 17.5 10Z"
     stroke="#667085"
     stroke-width="1.5"
     stroke-linecap="round"
     stroke-linejoin="round"
     id="path4" />
  <path
     fill-rule="evenodd"
     clip-rule="evenodd"
     d="M6.5 21V21C4.567 21 3 19.433 3 17.5V17.5C3 15.567 4.567 14 6.5 14V14C8.433 14 10 15.567 10 17.5V17.5C10 19.433 8.433 21 6.5 21Z"
     stroke="#667085"
     stroke-width="1.5"
     stroke-linecap="round"
     stroke-linejoin="round"
     id="path6" />
  <path
     fill-rule="evenodd"
     clip-rule="evenodd"
     d="M21 17.5V17.5C21 15.567 19.433 14 17.5 14V14C15.567 14 14 15.567 14 17.5V17.5C14 19.433 15.567 21 17.5 21V21C19.433 21 21 19.433 21 17.5Z"
     stroke="#667085"
     stroke-width="1.5"
     stroke-linecap="round"
     stroke-linejoin="round"
     id="path8" />
</svg>
