<svg width="22" height="22" viewBox="0 0 22 22" fill="none" xmlns="http://www.w3.org/2000/svg">
<path d="M13.5011 11V7.66528C13.5011 7.20486 13.1279 6.8316 12.6674 6.8316H9.3327C8.87227 6.8316 8.49902 7.20486 8.49902 7.66528V9.33265" stroke="#667085" stroke-width="1.5" stroke-linecap="round" stroke-linejoin="round"/>
<path d="M12.6674 15.1684V11.8337C12.6674 11.3733 13.0406 11 13.501 11H15.1684C15.6288 11 16.0021 11.3733 16.0021 11.8337V14.3348C16.0021 14.7952 15.6288 15.1684 15.1684 15.1684H6.8316C6.37117 15.1684 5.9979 14.7952 5.9978 14.3348V11.403C5.9978 11.0119 6.21875 10.6544 6.56852 10.4796L8.64157 9.44304C8.96076 9.28344 9.33972 9.29991 9.64388 9.48658C9.94803 9.67325 10.1343 10.0037 10.1365 10.3605L10.1664 15.1684" stroke="#667085" stroke-width="1.5" stroke-linecap="round" stroke-linejoin="round"/>
<path d="M11 6.83164V5.58112" stroke="#667085" stroke-width="1.5" stroke-linecap="round" stroke-linejoin="round"/>
<rect x="3.49695" y="3.49689" width="15.0062" height="15.0062" rx="5" stroke="#667085" stroke-width="1.5"/>
</svg>
