<svg width="24" height="24" viewBox="0 0 24 24" fill="none" xmlns="http://www.w3.org/2000/svg">
<path d="M17 12.2921V15.5C17 16.6046 16.1046 17.5 15 17.5H9C7.89543 17.5 7 16.6046 7 15.5V12.2921" stroke="#323232" stroke-width="1.5" stroke-linecap="round" stroke-linejoin="round"/>
<path fill-rule="evenodd" clip-rule="evenodd" d="M16.5 2.5H7.5C4.73858 2.5 2.5 4.73858 2.5 7.5V16.5C2.5 19.2614 4.73858 21.5 7.5 21.5H16.5C19.2614 21.5 21.5 19.2614 21.5 16.5V7.5C21.5 4.73858 19.2614 2.5 16.5 2.5Z" stroke="#323232" stroke-width="1.5" stroke-linecap="round" stroke-linejoin="round"/>
<path d="M8 12.5V12.5C6.89543 12.5 6 11.6046 6 10.5V9.32844C6 8.798 6.21071 8.28929 6.58579 7.91422L7.41421 7.0858C7.78928 6.71072 8.29799 6.5 8.82843 6.5H15.1716C15.702 6.5 16.2107 6.71071 16.5858 7.08579L17.4142 7.91421C17.7893 8.28929 18 8.798 18 9.32844V10.5C18 11.6046 17.1046 12.5 16 12.5V12.5" stroke="#323232" stroke-width="1.5" stroke-linecap="round" stroke-linejoin="round"/>
<path d="M16 12.5C14.8954 12.5 14 11.6046 14 10.5" stroke="#323232" stroke-width="1.5" stroke-linecap="round" stroke-linejoin="round"/>
<path d="M10 10.5C10 11.6046 9.10457 12.5 8 12.5" stroke="#323232" stroke-width="1.5" stroke-linecap="round" stroke-linejoin="round"/>
<path d="M14 10.5C14 11.6046 13.1046 12.5 12 12.5V12.5C10.8954 12.5 10 11.6046 10 10.5" stroke="#323232" stroke-width="1.5" stroke-linecap="round" stroke-linejoin="round"/>
</svg>
