<svg width="24" height="24" viewBox="0 0 24 24" fill="none" xmlns="http://www.w3.org/2000/svg">
<path d="M3.99666 20.0033V20.0033C3.99666 17.517 6.01222 15.5015 8.49853 15.5015H11.0826" stroke="#323232" stroke-width="1.5" stroke-linecap="round" stroke-linejoin="round"/>
<path d="M17.5023 15.0013V18.0025" stroke="#323232" stroke-width="1.5" stroke-linecap="round" stroke-linejoin="round"/>
<path d="M21.0037 18.7808C21.0037 18.351 20.6553 18.0025 20.2254 18.0025H14.7791C14.3493 18.0025 14.0008 18.351 14.0008 18.7808" stroke="#323232" stroke-width="1.5" stroke-linecap="round" stroke-linejoin="round"/>
<path fill-rule="evenodd" clip-rule="evenodd" d="M15.0012 22.0042H20.0033C20.5558 22.0042 21.0037 21.5563 21.0037 21.0037V17.4373C21.0037 17.0319 20.9217 16.6307 20.7626 16.2578L20.4845 15.6085C20.3272 15.2404 19.9655 15.0015 19.5651 15.0012H15.4394C15.0387 15.0011 14.6765 15.24 14.519 15.6085L14.2419 16.2568C14.0829 16.6297 14.0009 17.0309 14.0008 17.4363V21.0037C14.0008 21.5563 14.4487 22.0042 15.0012 22.0042Z" stroke="#323232" stroke-width="1.5" stroke-linecap="round" stroke-linejoin="round"/>
<path d="M15.0062 5.24219C16.2224 6.45814 16.5862 8.28695 15.9282 9.87579C15.2701 11.4646 13.7197 12.5006 12 12.5006C10.2803 12.5006 8.72987 11.4646 8.07181 9.87579C7.41375 8.28695 7.77762 6.45814 8.99374 5.24219C9.79095 4.4447 10.8724 3.99666 12 3.99666C13.1276 3.99666 14.209 4.4447 15.0062 5.24219" stroke="#323232" stroke-width="1.5" stroke-linecap="round" stroke-linejoin="round"/>
</svg>
