<svg width="24" height="24" viewBox="0 0 24 24" fill="none" xmlns="http://www.w3.org/2000/svg">
<path d="M3 15V14C2.98532 13.1999 3.29668 12.4283 3.8625 11.8625C4.42832 11.2967 5.19994 10.9853 6 11H9C9.80006 10.9853 10.5717 11.2967 11.1375 11.8625C11.7033 12.4283 12.0147 13.1999 12 14V15" stroke="#323232" stroke-width="1.5" stroke-linecap="round" stroke-linejoin="round"/>
<path d="M16 11H18C18.8001 10.9853 19.5717 11.2967 20.1375 11.8625C20.7033 12.4283 21.0147 13.1999 21 14V15" stroke="#323232" stroke-width="1.5" stroke-linecap="round" stroke-linejoin="round"/>
<circle cx="7.5" cy="5.5" r="2.5" stroke="#323232" stroke-width="1.5" stroke-linecap="round" stroke-linejoin="round"/>
<circle cx="17" cy="6" r="2" stroke="#323232" stroke-width="1.5" stroke-linecap="round" stroke-linejoin="round"/>
<path d="M18 17.5H15.4081" stroke="#323232" stroke-width="1.5" stroke-linecap="round" stroke-linejoin="round"/>
<path d="M18 20.0561V17.5" stroke="#323232" stroke-width="1.5" stroke-linecap="round" stroke-linejoin="round"/>
<path d="M6 17.5485C7.15841 19.6759 9.38704 21 11.8094 21C14.2318 21 16.4605 19.6759 17.6189 17.5485" stroke="#323232" stroke-width="1.5" stroke-linecap="round" stroke-linejoin="round"/>
</svg>
