<svg width="20" height="20" viewBox="0 0 20 20" fill="none" xmlns="http://www.w3.org/2000/svg">
<path fill-rule="evenodd" clip-rule="evenodd" d="M6.25 2.5H13.7533C15.8225 2.5 17.5 4.1775 17.5 6.24667V13.7542C17.5 15.8225 15.8225 17.5 13.7533 17.5H6.24667C4.1775 17.5 2.5 15.8225 2.5 13.7533V6.25C2.5 4.17917 4.17917 2.5 6.25 2.5V2.5Z" stroke="#667085" stroke-width="1.5" stroke-linecap="round" stroke-linejoin="round"/>
<path d="M11.7541 14.235C11.18 14.4725 10.585 14.5833 9.99996 14.5833C7.46913 14.5833 5.41663 12.5308 5.41663 9.99999C5.41663 7.46916 7.46913 5.41666 9.99996 5.41666C12.5308 5.41666 14.5833 7.46916 14.5833 9.99999V10.7633C14.5833 11.5542 13.9416 12.195 13.1516 12.195C12.3616 12.195 11.72 11.5533 11.72 10.7633V9.99999C11.72 9.04999 10.9508 8.28166 10.0016 8.28166V8.28166C9.05163 8.28166 8.28329 9.05082 8.28329 9.99999C8.28329 10.9492 9.05246 11.7183 10.0016 11.7183" stroke="#667085" stroke-width="1.5" stroke-linecap="round" stroke-linejoin="round"/>
<path d="M10.0009 11.7183C10.9509 11.7183 11.7192 10.9492 11.7192 10" stroke="#667085" stroke-width="1.5" stroke-linecap="round" stroke-linejoin="round"/>
</svg>
