<svg width="18" height="18" viewBox="0 0 18 18" fill="none" xmlns="http://www.w3.org/2000/svg">
<path fill-rule="evenodd" clip-rule="evenodd" d="M3.16667 10.6666V10.6666C2.24583 10.6666 1.5 9.92081 1.5 8.99998V8.99998C1.5 8.07915 2.24583 7.33331 3.16667 7.33331V7.33331C4.0875 7.33331 4.83333 8.07915 4.83333 8.99998V8.99998C4.83333 9.92081 4.0875 10.6666 3.16667 10.6666Z" stroke="#667085" stroke-width="1.5" stroke-linecap="round" stroke-linejoin="round"/>
<path fill-rule="evenodd" clip-rule="evenodd" d="M9.00004 10.6666V10.6666C8.07921 10.6666 7.33337 9.92081 7.33337 8.99998V8.99998C7.33337 8.07915 8.07921 7.33331 9.00004 7.33331V7.33331C9.92087 7.33331 10.6667 8.07915 10.6667 8.99998V8.99998C10.6667 9.92081 9.92087 10.6666 9.00004 10.6666Z" stroke="#667085" stroke-width="1.5" stroke-linecap="round" stroke-linejoin="round"/>
<path fill-rule="evenodd" clip-rule="evenodd" d="M14.8333 10.6666V10.6666C13.9125 10.6666 13.1666 9.92081 13.1666 8.99998V8.99998C13.1666 8.07915 13.9125 7.33331 14.8333 7.33331V7.33331C15.7541 7.33331 16.5 8.07915 16.5 8.99998V8.99998C16.5 9.92081 15.7541 10.6666 14.8333 10.6666Z" stroke="#667085" stroke-width="1.5" stroke-linecap="round" stroke-linejoin="round"/>
<path fill-rule="evenodd" clip-rule="evenodd" d="M3.16667 16.5V16.5C2.24583 16.5 1.5 15.7542 1.5 14.8334V14.8334C1.5 13.9125 2.24583 13.1667 3.16667 13.1667V13.1667C4.0875 13.1667 4.83333 13.9125 4.83333 14.8334V14.8334C4.83333 15.7542 4.0875 16.5 3.16667 16.5Z" stroke="#667085" stroke-width="1.5" stroke-linecap="round" stroke-linejoin="round"/>
<path fill-rule="evenodd" clip-rule="evenodd" d="M9.00004 16.5V16.5C8.07921 16.5 7.33337 15.7542 7.33337 14.8334V14.8334C7.33337 13.9125 8.07921 13.1667 9.00004 13.1667V13.1667C9.92087 13.1667 10.6667 13.9125 10.6667 14.8334V14.8334C10.6667 15.7542 9.92087 16.5 9.00004 16.5Z" stroke="#667085" stroke-width="1.5" stroke-linecap="round" stroke-linejoin="round"/>
<path fill-rule="evenodd" clip-rule="evenodd" d="M14.8333 16.5V16.5C13.9125 16.5 13.1666 15.7542 13.1666 14.8334V14.8334C13.1666 13.9125 13.9125 13.1667 14.8333 13.1667V13.1667C15.7541 13.1667 16.5 13.9125 16.5 14.8334V14.8334C16.5 15.7542 15.7541 16.5 14.8333 16.5Z" stroke="#667085" stroke-width="1.5" stroke-linecap="round" stroke-linejoin="round"/>
<path fill-rule="evenodd" clip-rule="evenodd" d="M3.16667 4.83333V4.83333C2.24583 4.83333 1.5 4.0875 1.5 3.16667V3.16667C1.5 2.24583 2.24583 1.5 3.16667 1.5V1.5C4.0875 1.5 4.83333 2.24583 4.83333 3.16667V3.16667C4.83333 4.0875 4.0875 4.83333 3.16667 4.83333Z" stroke="#667085" stroke-width="1.5" stroke-linecap="round" stroke-linejoin="round"/>
<path fill-rule="evenodd" clip-rule="evenodd" d="M9.00004 4.83333V4.83333C8.07921 4.83333 7.33337 4.0875 7.33337 3.16667V3.16667C7.33337 2.24583 8.07921 1.5 9.00004 1.5V1.5C9.92087 1.5 10.6667 2.24583 10.6667 3.16667V3.16667C10.6667 4.0875 9.92087 4.83333 9.00004 4.83333Z" stroke="#667085" stroke-width="1.5" stroke-linecap="round" stroke-linejoin="round"/>
<path fill-rule="evenodd" clip-rule="evenodd" d="M14.8333 4.83333V4.83333C13.9125 4.83333 13.1666 4.0875 13.1666 3.16667V3.16667C13.1666 2.24583 13.9125 1.5 14.8333 1.5V1.5C15.7541 1.5 16.5 2.24583 16.5 3.16667V3.16667C16.5 4.0875 15.7541 4.83333 14.8333 4.83333Z" stroke="#667085" stroke-width="1.5" stroke-linecap="round" stroke-linejoin="round"/>
</svg>
