<svg width="24" height="24" viewBox="0 0 24 24" fill="none" xmlns="http://www.w3.org/2000/svg">
<rect x="20.0033" y="4.99709" width="7.00292" height="3.00125" rx="1.5" transform="rotate(180 20.0033 4.99709)" stroke="#323232" stroke-width="1.5" stroke-linecap="round" stroke-linejoin="round"/>
<path d="M12 9.99909V9.33222C12 8.46638 12.2808 7.62389 12.8003 6.93122L14.2509 4.99709" stroke="#323232" stroke-width="1.5" stroke-linecap="round" stroke-linejoin="round"/>
<path fill-rule="evenodd" clip-rule="evenodd" d="M11.7776 9.97841H4.2191C3.87424 9.97841 3.54542 10.124 3.31365 10.3794C3.08189 10.6348 2.96874 10.9761 3.00209 11.3194L3.81573 19.6941C3.88676 20.4253 4.50129 20.983 5.23586 20.983H10.7608C11.4954 20.983 12.1099 20.4253 12.1809 19.6941L12.9946 11.3194C13.0279 10.9761 12.9148 10.6348 12.683 10.3794C12.4512 10.124 12.1224 9.97841 11.7776 9.97841Z" stroke="#323232" stroke-width="1.5" stroke-linecap="round" stroke-linejoin="round"/>
<path d="M12.1601 19.7932C12.4793 20.5261 13.2015 21.0011 14.0008 21.0038H19.0029C20.1079 21.0038 21.0037 20.1079 21.0037 19.0029V9.33222C21.0037 8.46638 20.7229 7.62389 20.2034 6.93122L18.7528 4.99709" stroke="#323232" stroke-width="1.5" stroke-linecap="round" stroke-linejoin="round"/>
</svg>
