<svg width="109" height="32" viewBox="0 0 109 32" fill="none" xmlns="http://www.w3.org/2000/svg">
  <path d="M79.6136 18.3464L82.2503 14.6017L79.6152 10.8602V10.8657L75.2575 4.625H69.995L76.9934 14.6143L69.6627 25.0469H74.9252L79.6168 18.3441L79.6136 18.3464Z" fill="#65B722"/>
  <path d="M34.2575 4.42095C32.6422 4.41497 31.0478 4.78532 29.6006 5.50263C28.1534 6.21994 26.8931 7.26449 25.9197 8.55349C24.9463 9.8425 24.2866 11.3405 23.9927 12.9288C23.6989 14.5171 23.7791 16.152 24.2269 17.7039C24.6747 19.2559 25.4779 20.6821 26.5727 21.8697C27.6675 23.0573 29.0239 23.9735 30.5344 24.5458C32.0449 25.1181 33.6679 25.3307 35.2748 25.1667C36.8817 25.0027 38.4283 24.4667 39.792 23.6011C41.5877 22.3949 43.0136 20.7142 43.9113 18.746L39.957 17.0359C39.4145 18.2362 38.5479 19.2614 37.4548 19.9964C36.3289 20.7106 34.9979 21.0313 33.6703 20.9082C32.3426 20.7851 31.0933 20.2251 30.1179 19.3161C29.1987 18.4646 28.5575 17.3558 28.278 16.1344H44.6095L44.6463 14.8113C44.6378 12.0583 43.5406 9.4204 41.594 7.47356C39.6474 5.52671 37.0097 4.42903 34.2567 4.42017L34.2575 4.42095ZM28.9059 11.8494C29.3646 11.0769 29.9709 10.4023 30.6903 9.86402C31.7273 9.111 32.9759 8.70545 34.2575 8.70545C35.539 8.70545 36.7877 9.111 37.8247 9.86402C38.562 10.3865 39.1759 11.0641 39.6231 11.8494H28.9059Z" fill="#2248AB"/>
  <path d="M58.1252 4.42095C56.51 4.41509 54.9157 4.78553 53.4685 5.50292C52.0214 6.22031 50.7612 7.26491 49.7879 8.55395C48.8146 9.84298 48.1549 11.341 47.8612 12.9293C47.5674 14.5176 47.6477 16.1524 48.0955 17.7043C48.5434 19.2562 49.3466 20.6824 50.4414 21.8699C51.5363 23.0575 52.8927 23.9736 54.4031 24.5459C55.9136 25.1181 57.5365 25.3307 59.1434 25.1667C60.7503 25.0027 62.2969 24.4666 63.6606 23.6011C65.456 22.3948 66.8817 20.7142 67.779 18.746L63.8263 17.0359C63.284 18.2364 62.4174 19.2616 61.3241 19.9964C60.1981 20.7105 58.867 21.0311 57.5392 20.908C56.2115 20.7849 54.962 20.2251 53.9864 19.3161C53.0671 18.465 52.4263 17.3559 52.1481 16.1344H68.4789L68.5156 14.8113C68.5072 12.0582 67.4098 9.42016 65.463 7.4733C63.5163 5.52643 60.8784 4.42883 58.1252 4.42017V4.42095ZM52.7744 11.8494C53.2328 11.0769 53.8389 10.4023 54.558 9.86402C55.5952 9.11105 56.844 8.70555 58.1256 8.70555C59.4073 8.70555 60.6561 9.11105 61.6932 9.86402C62.4307 10.3863 63.0446 11.064 63.4917 11.8494H52.7744Z" fill="#2248AB"/>
  <path d="M22.1343 3.96285C22.1351 2.4856 21.564 1.0654 20.5407 0C20.3005 1.32181 19.6041 2.51744 18.5729 3.3785C17.5416 4.23956 16.2409 4.71145 14.8975 4.71195H14.8631H10.8893C9.05562 4.70989 7.25531 5.20202 5.67771 6.13659C4.1001 7.07115 2.80352 8.41362 1.92434 10.0227C1.04516 11.6319 0.615879 13.4482 0.681654 15.2807C0.747429 17.1131 1.30583 18.894 2.29812 20.4359C3.09824 21.8411 4.27281 22.9964 5.69094 23.7732L0 32H16.9821V27.7314H8.11729L9.95953 25.1049C10.268 25.1448 10.579 25.1631 10.89 25.1596C12.7679 25.1543 14.6081 24.633 16.2097 23.6525C17.8112 22.672 19.1125 21.2702 19.9711 19.6002C20.8298 17.9301 21.2128 16.0562 21.0784 14.1832C20.944 12.3101 20.2974 10.5101 19.2091 8.97977L19.2192 8.95553C20.104 8.45632 20.8402 7.73095 21.3524 6.85367C21.8646 5.97639 22.1344 4.97872 22.1343 3.96285ZM15.1031 19.1598C14.1265 20.1352 12.842 20.742 11.4682 20.8768C10.0945 21.0116 8.71656 20.6661 7.56894 19.8991C6.42133 19.1322 5.57503 17.9911 5.17412 16.6703C4.77322 15.3495 4.8425 13.9306 5.37017 12.6551C5.89785 11.3796 6.85129 10.3265 8.06816 9.67497C9.28504 9.02345 10.6901 8.81386 12.0442 9.08186C13.3982 9.34985 14.6175 10.0789 15.4945 11.1448C16.3714 12.2107 16.8518 13.5477 16.8539 14.928C16.8682 15.7157 16.7201 16.498 16.4189 17.2261C16.1177 17.9542 15.6698 18.6124 15.1031 19.1598Z" fill="#2248AB"/>
  <path d="M89.2487 4.625H83.9863L80.2565 9.94686L82.8955 13.6955L89.2487 4.625Z" fill="#2248AB"/>
  <path d="M80.2572 19.2624L84.3045 25.0487H89.567L82.8908 15.5232L80.2572 19.2624Z" fill="#2248AB"/>
  <path d="M104.161 4.74561V16.8085C104.161 17.9254 103.717 18.9965 102.928 19.7862C102.138 20.576 101.067 21.0197 99.9499 21.0197C98.8331 21.0197 97.762 20.576 96.9722 19.7862C96.1825 18.9965 95.7388 17.9254 95.7388 16.8085V4.74561H91.4546V16.8085C91.4621 18.2938 91.857 19.7515 92.6001 21.0375C93.3432 22.3236 94.4089 23.3936 95.6919 24.1418C96.975 24.8901 98.431 25.2908 99.9162 25.3043C101.401 25.3179 102.865 24.9437 104.161 24.219V25.047H108.446V4.74561H104.161Z" fill="#2248AB"/>
</svg>